<svg xmlns="http://www.w3.org/2000/svg" viewBox="0 0 16 16">
  <defs>
    <style>.canvas{fill: none; opacity: 0;}.light-defaultgrey-10{fill: #212121; opacity: 0.1;}.light-defaultgrey{fill: #212121; opacity: 1;}.cls-1{opacity:0.75;}</style>
  </defs>
  <title>IconLightSplitScreenVertically</title>
  <g id="canvas">
    <path class="canvas" d="M16,16H0V0H16Z" />
  </g>
  <g id="level-1">
    <path class="light-defaultgrey-10" d="M13,3V5H2V3Z" />
    <path class="light-defaultgrey" d="M13.5,6H1.5L1,5.5v-3L1.5,2h12l.5.5v3ZM2,5H13V3H2Z" />
    <g class="cls-1">
      <path class="light-defaultgrey-10" d="M13.5,5v8H1.5V5Z" />
      <path class="light-defaultgrey" d="M13.5,5H1.5L1,5.5v8l.5.5h12l.5-.5v-8ZM13,13H2V6H13Z" />
    </g>
    <path class="light-defaultgrey" d="M7,12H8v1H7Zm0-1H8V10H7ZM7,9H8V8H7ZM7,6V7H8V6Z" />
  </g>
</svg>
